<?xml version="1.0" ?><!DOCTYPE svg  PUBLIC '-//W3C//DTD SVG 1.1//EN'  'http://www.w3.org/Graphics/SVG/1.1/DTD/svg11.dtd'><svg enable-background="new 0 0 64 64" height="64px" id="Layer_1" version="1.1" viewBox="0 0 64 64" width="64px" xml:space="preserve" xmlns="http://www.w3.org/2000/svg" xmlns:xlink="http://www.w3.org/1999/xlink"><g><g><path d="M50.123,42.428v7.295c0,0.729-0.707,0.41-1.12,0.183l-4.367-2.745c-6.289,6.972-16.276,6.767-21.718-1.303    c0,0,9.945-11.818,21.949-0.824l3.635-2.605c0,0,0.022,0,0.046-0.022l0.068-0.046C48.957,42.109,50.123,41.354,50.123,42.428z" fill="#241F20"/></g><circle cx="28.074" cy="32.793" fill="#241F20" r="3.926"/><circle cx="38.085" cy="26.667" fill="#241F20" r="2.203"/><path d="M35.882,14.542c0,1.624-1.319,2.941-2.947,2.941c-1.622,0-2.94-1.317-2.94-2.941   c0-1.628,1.319-2.944,2.94-2.944C34.562,11.598,35.882,12.914,35.882,14.542z" fill="#241F20"/><path d="M20.954,18.002c0,0,1.804-1.593,3.022-0.52c0.762,0.902,0.867,2.047-0.312,2.742   c-1.182,0.695-6.324,3.647-9.346,10.733c-1.631,4.205-2.602,10.109,0.244,16.742c0.694,1.739,2.709,4.462,2.709,4.462   s1.045,1.586-0.277,2.384s-1.98,0.205-2.364-0.244c-0.381-0.453-3.507-4.445-4.618-9.691c-1.114-5.243-0.801-11.673,2.117-16.954   C15.046,22.377,17.651,20.333,20.954,18.002z" fill="#241F20"/><path d="M46,11.606c-0.02-0.021-0.046-0.043-0.127-0.084c-0.811-0.418,0-1.41,0-1.41v-0.001l5.812-6.599   C54.601,0.2,51.68,0.004,51.68,0.004H12.203c-2.661,0-1.055,2.182-0.316,3.048l0.316,0.35v0.001l6.468,7.187   c0.003,0.003,0.414,0.47-0.098,0.719c-0.033,0.017-0.046,0.034-0.068,0.052C8.016,16.395,0.77,27.1,0.77,39.497   c0,7.419,2.589,14.225,6.92,19.592c1.458,1.801,3.126,3.452,4.946,4.907h38.727C58.59,58.284,63.23,49.427,63.23,39.497   C63.23,27.3,56.209,16.737,46,11.606z M49.95,60.59h-3.084h-0.537H14.353c0,0-17.986-14.703-4.165-37.522   c0.495-0.873,1.036-1.709,1.625-2.514c0.111-0.16,0.205-0.312,0.316-0.472c0.006,0.007,0.01,0.013,0.013,0.021   c2.53-3.292,5.826-5.968,9.652-7.704l-0.003-0.003c0.095-0.045,0.192-0.088,0.29-0.13c0,0,0-0.001,0.003-0.002   c1.26-0.619,0.781-1.647,0.361-2.231l-0.361-0.441v0l-4.371-5.322c-0.667-0.816,0.388-0.886,0.704-0.89h28.198   c0,0,1.512-0.034,0,1.748v0.001L42.789,9.63v0c0,0-1.566,1.979,0,2.756h0.003l0.573,0.271c5.139,2.481,9.265,6.666,11.763,11.795   c0.01,0.005,0.017,0.006,0.026,0.013C67.266,45.551,49.95,60.59,49.95,60.59z" fill="#241F20"/></g></svg>